<?xml version="1.0" encoding="UTF-8"?>
<svg version="1.1" xmlns="http://www.w3.org/2000/svg" width="1024" height="1024">
<path d="M0 0 C0.66 0 1.32 0 2 0 C40.87715756 76.61360811 74.29785393 152.94778487 85 239 C87.72012558 239 88.58994383 237.9489046 90.7265625 236.28125 C91.8853894 235.38913818 91.8853894 235.38913818 93.06762695 234.47900391 C94.33352661 233.49939697 94.33352661 233.49939697 95.625 232.5 C111.67053454 220.27805092 128.4878498 209.01776421 146 199 C146.62310059 198.63841797 147.24620117 198.27683594 147.88818359 197.90429688 C265.20654213 130 265.20654213 130 315 130 C312.5388528 139.55771459 309.54857647 148.93009736 306.5 158.3125 C306.23611481 159.12467987 305.97222961 159.93685974 305.7003479 160.77365112 C293.14541514 199.30884946 278.23487667 236.79640959 260 273 C259.48872559 274.02367676 258.97745117 275.04735352 258.45068359 276.10205078 C243.71370362 305.50412303 225.80497829 333.49217649 205 359 C206.69450149 360.69450149 208.95700457 360.45270315 211.28125 360.7265625 C264.28132852 367.30266537 315.03068305 382.93148558 364 404 C364.63369507 404.27247559 365.26739014 404.54495117 365.92028809 404.82568359 C392.81241659 416.42884255 418.87986824 429.77517487 445 443 C445 443.66 445 444.32 445 445 C370.46310224 482.84766953 294.60978087 517.33900655 206 528 C206 530.72012558 207.0510954 531.58994383 208.71875 533.7265625 C209.61086182 534.8853894 209.61086182 534.8853894 210.52099609 536.06762695 C211.50060303 537.33352661 211.50060303 537.33352661 212.5 538.625 C224.72194908 554.67053454 235.98223579 571.4878498 246 589 C246.36158203 589.62310059 246.72316406 590.24620117 247.09570312 590.88818359 C274.66883502 638.52632613 293.86559047 690.27310131 310.75 742.5 C310.96881836 743.17501556 311.18763672 743.85003113 311.41308594 744.54550171 C315 755.64012854 315 755.64012854 315 758 C305.5552804 755.55977412 296.27615781 752.63072464 287 749.625 C285.79630768 749.2350032 285.79630768 749.2350032 284.56829834 748.83712769 C245.90403057 736.26398189 208.34959752 721.21737516 172 703 C170.96907227 702.4858252 169.93814453 701.97165039 168.87597656 701.44189453 C139.48252372 686.70680798 111.50107067 668.79947047 86 648 C84.32298425 649.67701575 84.53096896 651.86502358 84.23828125 654.16796875 C84.09229492 655.27317871 83.94630859 656.37838867 83.79589844 657.51708984 C83.63637695 658.7283252 83.47685547 659.93956055 83.3125 661.1875 C75.08292504 720.64961442 55.65511609 776.93381138 30 831 C29.54334961 831.96824707 29.08669922 832.93649414 28.61621094 833.93408203 C20.03777971 852.10139903 11.02909995 870.05388787 2 888 C1.34 888 0.68 888 0 888 C-38.65397471 811.87517126 -73.31878537 734.68724179 -83 649 C-85.72012558 649 -86.58994383 650.0510954 -88.7265625 651.71875 C-89.49911377 652.31349121 -90.27166504 652.90823242 -91.06762695 653.52099609 C-92.33352661 654.50060303 -92.33352661 654.50060303 -93.625 655.5 C-109.67053454 667.72194908 -126.4878498 678.98223579 -144 689 C-144.62310059 689.36158203 -145.24620117 689.72316406 -145.88818359 690.09570312 C-194.03589773 717.96377693 -246.39025853 737.28883172 -299.1875 754.3125 C-300.9506958 754.88109741 -300.9506958 754.88109741 -302.74951172 755.46118164 C-310.73589683 758 -310.73589683 758 -313 758 C-310.5388528 748.44228541 -307.54857647 739.06990264 -304.5 729.6875 C-304.23611481 728.87532013 -303.97222961 728.06314026 -303.7003479 727.22634888 C-291.14541514 688.69115054 -276.23487667 651.20359041 -258 615 C-257.48872559 613.97632324 -256.97745117 612.95264648 -256.45068359 611.89794922 C-241.71370362 582.49587697 -223.80497829 554.50782351 -203 529 C-204.67701575 527.32298425 -206.86502358 527.53096896 -209.16796875 527.23828125 C-210.82578369 527.01930176 -210.82578369 527.01930176 -212.51708984 526.79589844 C-213.7283252 526.63637695 -214.93956055 526.47685547 -216.1875 526.3125 C-289.06325698 516.22647278 -355.65087119 488.65733692 -421.0625 456.1875 C-422.53958435 455.45818771 -422.53958435 455.45818771 -424.04650879 454.71414185 C-426.83891394 453.33260317 -429.62538334 451.93981581 -432.41015625 450.54296875 C-433.67162224 449.92054794 -433.67162224 449.92054794 -434.95857239 449.28555298 C-435.72771469 448.89636688 -436.49685699 448.50718079 -437.28930664 448.10620117 C-437.96095352 447.77029465 -438.6326004 447.43438812 -439.32460022 447.08830261 C-441 446 -441 446 -443 443 C-368.48720899 405.31760552 -293.74460978 371.614778 -204 360 C-204 357.27987442 -205.0510954 356.41005617 -206.71875 354.2734375 C-207.31349121 353.50088623 -207.90823242 352.72833496 -208.52099609 351.93237305 C-209.50060303 350.66647339 -209.50060303 350.66647339 -210.5 349.375 C-222.72194908 333.32946546 -233.98223579 316.5121502 -244 299 C-244.36158203 298.37689941 -244.72316406 297.75379883 -245.09570312 297.11181641 C-272.96377693 248.96410227 -292.28883172 196.60974147 -309.3125 143.8125 C-309.69156494 142.63703613 -310.07062988 141.46157227 -310.46118164 140.25048828 C-313 132.26410317 -313 132.26410317 -313 130 C-303.44228541 132.4611472 -294.06990264 135.45142353 -284.6875 138.5 C-283.46923019 138.89582779 -283.46923019 138.89582779 -282.22634888 139.2996521 C-243.69115054 151.85458486 -206.20359041 166.76512333 -170 185 C-168.97632324 185.51127441 -167.95264648 186.02254883 -166.89794922 186.54931641 C-139.41842295 200.32267309 -113.83597149 216.84835451 -89.61767578 235.74316406 C-87.76193826 237.18495953 -85.88749793 238.60006548 -84 240 C-82.28449263 238.28449263 -82.52255923 235.92540147 -82.23828125 233.578125 C-82.01930176 231.84477905 -82.01930176 231.84477905 -81.79589844 230.07641602 C-81.63637695 228.81369873 -81.47685547 227.55098145 -81.3125 226.25 C-73.43921962 167.11640572 -53.48262084 110.70266812 -28 57 C-27.54334961 56.03175293 -27.08669922 55.06350586 -26.61621094 54.06591797 C-18.03777971 35.89860097 -9.02909995 17.94611213 0 0 Z M0 47 C-30.61989115 109.13267002 -55.20265607 172.80624121 -63.875 241.9375 C-64.00753174 242.980271 -64.14006348 244.02304199 -64.27661133 245.09741211 C-64.38900146 246.06428955 -64.5013916 247.03116699 -64.6171875 248.02734375 C-64.71628418 248.87031006 -64.81538086 249.71327637 -64.91748047 250.58178711 C-65.04129131 254.21003072 -64.73869253 257.03252605 -62.51171875 259.94921875 C-61.90972656 260.52285156 -61.30773437 261.09648437 -60.6875 261.6875 C-59.79611328 262.55955078 -59.79611328 262.55955078 -58.88671875 263.44921875 C-57.00751059 264.9938267 -55.21301684 266.00829488 -53 267 C-51.515 266.01 -51.515 266.01 -50 265 C-49.38128172 262.07056936 -49.38128172 262.07056936 -49.2265625 258.5703125 C-49.12612395 257.21791919 -49.02544601 255.86554364 -48.92456055 254.51318359 C-48.87633148 253.79829773 -48.82810242 253.08341187 -48.77841187 252.34686279 C-45.17427566 200.14818747 -28.48041103 151.73078784 -4.72412109 105.41870117 C-4.4091568 104.80239334 -4.0941925 104.18608551 -3.76968384 103.55110168 C-2.91267836 101.87752907 -2.04979364 100.20697083 -1.18652344 98.53662109 C0.14123222 96.16479994 0.14123222 96.16479994 0 94 C0.66 94 1.32 94 2 94 C2.26627197 94.86214111 2.53254395 95.72428223 2.80688477 96.61254883 C3.99819715 99.99488142 5.43618582 103.01955624 7.08984375 106.19921875 C7.71079121 107.40615095 8.33104135 108.6134421 8.95068359 109.82104492 C9.2747821 110.4504599 9.59888062 111.07987488 9.93280029 111.72836304 C25.76618432 142.60302905 37.88373181 174.99880678 45 209 C45.19432617 209.92103516 45.38865234 210.84207031 45.58886719 211.79101562 C47.55894132 221.38352318 48.96981604 230.94916271 49.76953125 240.70703125 C49.83206589 241.45902802 49.89460052 242.21102478 49.95903015 242.98580933 C50.26643561 246.74235071 50.54622687 250.49829213 50.78588867 254.25976562 C50.88814693 255.63804775 50.99075098 257.01630428 51.09375 258.39453125 C51.17302734 259.62018799 51.25230469 260.84584473 51.33398438 262.10864258 C51.68574771 265.12524247 51.68574771 265.12524247 54.05664062 266.4128418 C55.01860352 266.70348511 55.01860352 266.70348511 56 267 C57.65809558 265.61875523 59.30110507 264.21938652 60.9375 262.8125 C61.85402344 262.03519531 62.77054688 261.25789062 63.71484375 260.45703125 C66.28859728 257.68969626 66.56631784 256.66750654 67 253 C66.77145081 248.24625511 66.10678798 243.53144666 65.5 238.8125 C65.41141724 238.11248871 65.32283447 237.41247742 65.23156738 236.69125366 C57.5909336 177.12338694 37.1031728 120.97821332 11.42919922 67.00537109 C9.69160862 63.35150361 7.97312949 59.68885442 6.25537109 56.02563477 C4.84235916 53.01450439 3.4218624 50.00695976 2 47 C1.34 47 0.68 47 0 47 Z M0 142 C-15.69526764 175.5193187 -30.77204297 215.51302471 -30 253 C-28.5603187 252.23324839 -27.12352426 251.46107908 -25.6875 250.6875 C-24.20443359 249.88892578 -24.20443359 249.88892578 -22.69140625 249.07421875 C-19.81499476 247.48899282 -17.01393676 245.79984438 -14.21484375 244.08203125 C-13.37671143 243.57518799 -12.5385791 243.06834473 -11.67504883 242.54614258 C-9.98748606 241.52294152 -8.30867308 240.48515518 -6.6394043 239.43237305 C-5.46051636 238.72334839 -5.46051636 238.72334839 -4.2578125 238 C-3.5580127 237.566875 -2.85821289 237.13375 -2.13720703 236.6875 C0.89627448 235.71168507 2.20137536 236.57290614 5 238 C6.80878754 238.96036438 8.60107687 239.95221923 10.37890625 240.96875 C11.38244141 241.53980469 12.38597656 242.11085938 13.41992188 242.69921875 C14.45697266 243.29347656 15.49402344 243.88773437 16.5625 244.5 C18.62581279 245.6779408 20.68959613 246.85505787 22.75390625 248.03125 C24.12011108 248.81338867 24.12011108 248.81338867 25.51391602 249.61132812 C27.65071032 250.80489446 29.80010153 251.92847696 32 253 C30.87640067 214.292003 17.92873927 176.9077694 2 142 C1.34 142 0.68 142 0 142 Z M-280 163 C-277.59490982 172.95943452 -274.05867815 182.47307222 -270.5 192.0625 C-270.18975891 192.90147827 -269.87951782 193.74045654 -269.55987549 194.6048584 C-264.13074732 209.26145072 -258.36991961 223.7227506 -252 238 C-251.52353027 239.0710498 -251.04706055 240.14209961 -250.55615234 241.24560547 C-232.81276958 280.91244305 -211.12207683 323.87792317 -180 355 C-180 349.72 -180 344.44 -180 339 C-178.68 338.34 -177.36 337.68 -176 337 C-176.63164062 336.23300781 -177.26328125 335.46601563 -177.9140625 334.67578125 C-211.17358457 293.66855368 -230.40017323 245.55201139 -247 196 C-222.95297244 204.14528533 -199.04348592 212.27159535 -176 223 C-174.62497314 223.63881104 -174.62497314 223.63881104 -173.22216797 224.29052734 C-148.7803712 235.78332454 -125.50232279 250.38227028 -105 268 C-103.90065633 268.92817024 -102.80033803 269.85518692 -101.69921875 270.78125 C-96.10650581 275.4901995 -90.54772618 280.23816728 -85 285 C-83.57306723 273.17167165 -83.57306723 273.17167165 -86.6640625 262.08984375 C-89.29590186 259.73527174 -92.02058565 257.89697827 -95 256 C-96.1956587 255.10098829 -97.38140391 254.18868831 -98.55859375 253.265625 C-147.30375801 215.16214293 -203.70654284 188.8602151 -261.8125 168.5 C-262.62225281 168.21624512 -263.43200562 167.93249023 -264.26629639 167.64013672 C-266.53631558 166.84821954 -268.80839317 166.06271012 -271.08203125 165.28125 C-271.7571727 165.04772827 -272.43231415 164.81420654 -273.12791443 164.5736084 C-276.48827836 163.38966161 -276.48827836 163.38966161 -280 163 Z M272.90625 165.3515625 C271.81744789 165.72696671 271.81744789 165.72696671 270.70664978 166.10995483 C268.30242086 166.94265023 265.90081293 167.78250795 263.5 168.625 C262.67444611 168.91455566 261.84889221 169.20411133 260.99832153 169.50244141 C201.53069988 190.44423707 142.28653869 217.77603931 94 259 C93.39325439 259.4031543 92.78650879 259.80630859 92.16137695 260.22167969 C89.24213081 262.30953927 87.29195184 263.77007793 86.44116211 267.35424805 C86.31164351 270.06045182 86.3870396 272.67175292 86.5625 275.375 C86.59408203 276.30183594 86.62566406 277.22867188 86.65820312 278.18359375 C86.74030694 280.45904237 86.85500225 282.72783746 87 285 C90.91850341 281.66909764 94.7862869 278.30499047 98.5625 274.8125 C141.75621695 235.91213444 194.73665484 214.49614897 249 196 C233.09816618 243.15167324 215.2025872 287.86899942 185.03125 327.92578125 C182.56085072 331.2112598 180.23674504 334.55168473 178 338 C179.32 338.33 180.64 338.66 182 339 C182 344.28 182 349.56 182 355 C192.81970418 344.18029582 201.56120686 331.71903177 210 319 C210.44698242 318.33274902 210.89396484 317.66549805 211.35449219 316.97802734 C239.96178873 274.19065616 259.89699238 227.27786256 277.125 179 C277.37164398 178.31026093 277.61828796 177.62052185 277.87240601 176.90988159 C278.56723244 174.9620952 279.25722827 173.01267696 279.9453125 171.0625 C280.54110107 169.37833984 280.54110107 169.37833984 281.14892578 167.66015625 C282.10157288 165.1480165 282.10157288 165.1480165 282 163 C278.79509956 163 275.90624945 164.31016594 272.90625 165.3515625 Z M-213 230 C-211.10938414 236.75130811 -208.85298696 243.19488397 -206.0625 249.625 C-205.67553955 250.51815918 -205.2885791 251.41131836 -204.88989258 252.33154297 C-193.02904749 279.31875589 -178.3985297 303.97137674 -160 327 C-155.65441486 326.05409113 -152.08932723 323.98586365 -148.25 321.8125 C-147.47720703 321.37905273 -146.70441406 320.94560547 -145.90820312 320.49902344 C-136.13557967 314.99088728 -126.44457857 309.33600935 -116.78125 303.63867188 C-114.88930824 302.52396743 -112.99330061 301.41614142 -111.09375 300.31445312 C-110.18625 299.78271484 -109.27875 299.25097656 -108.34375 298.703125 C-107.53099609 298.23036133 -106.71824219 297.75759766 -105.88085938 297.27050781 C-103.8603551 296.12974837 -103.8603551 296.12974837 -103 294 C-103.65484375 293.46632813 -104.3096875 292.93265625 -104.984375 292.3828125 C-106.35335937 291.26519531 -106.35335937 291.26519531 -107.75 290.125 C-108.76191406 289.3 -109.77382813 288.475 -110.81640625 287.625 C-112.84699681 285.96052078 -114.84687151 284.27311166 -116.83984375 282.5625 C-134.59826496 267.36187608 -154.92921751 254.9609428 -176.01708984 244.94433594 C-178.08731432 243.95841765 -180.14720637 242.95275842 -182.20703125 241.9453125 C-197.04202185 233.86024108 -197.04202185 233.86024108 -213 230 Z M141 266 C140.34870117 266.44327637 139.69740234 266.88655273 139.02636719 267.34326172 C131.02084474 272.83247033 123.44286713 278.7687624 116 285 C113.94166249 286.69264303 111.87691926 288.37725979 109.8125 290.0625 C108.89082031 290.81660156 107.96914063 291.57070313 107.01953125 292.34765625 C106.35308594 292.89292969 105.68664062 293.43820312 105 294 C107.96037169 297.22064835 110.9322584 299.30055511 114.7421875 301.43359375 C115.88107422 302.0769165 117.01996094 302.72023926 118.19335938 303.38305664 C119.42044514 304.06810002 120.64766142 304.75290967 121.875 305.4375 C124.40549848 306.85870221 126.93357765 308.28416244 129.4609375 309.7109375 C130.09533752 310.06843582 130.72973755 310.42593414 131.38336182 310.79426575 C135.49792999 313.12197503 139.56167213 315.52055587 143.6015625 317.9765625 C145.10227295 318.88643921 145.10227295 318.88643921 146.63330078 319.81469727 C148.51011411 320.95897479 150.38116205 322.11277575 152.24560547 323.27709961 C153.08236816 323.7850708 153.91913086 324.29304199 154.78125 324.81640625 C155.8650293 325.48845093 155.8650293 325.48845093 156.97070312 326.17407227 C158.96133823 327.16287429 158.96133823 327.16287429 161.09936523 326.82397461 C164.55158161 325.32734901 166.42126812 321.97414569 168.5625 319 C169.08626221 318.28521484 169.61002441 317.57042969 170.1496582 316.83398438 C179.36029182 304.12660593 187.64320974 290.86053165 195 277 C195.433125 276.1843457 195.86625 275.36869141 196.3125 274.52832031 C208.86649562 253.18229698 208.86649562 253.18229698 215 230 C191.92469441 230 159.60748901 253.28294143 141 266 Z M5 271 C5 322.48 5 373.96 5 427 C7.84662178 423.44172277 9.95715538 420.54117419 12.1015625 416.640625 C12.66866943 415.61654541 13.23577637 414.59246582 13.82006836 413.53735352 C14.4156958 412.45252686 15.01132324 411.3677002 15.625 410.25 C19.65708274 402.97685707 23.69013149 395.71249288 27.9375 388.5625 C32.07341691 381.59244323 36.14114039 374.58494521 40.1875 367.5625 C40.82187988 366.46180176 41.45625977 365.36110352 42.10986328 364.22705078 C44.07381539 360.81836363 46.0370361 357.40925632 48 354 C56.27335311 339.63092203 64.55412874 325.26855426 73 311 C69.59166354 308.1544796 66.16533016 305.81788398 62.30078125 303.63671875 C61.18614502 303.00419189 60.07150879 302.37166504 58.9230957 301.7199707 C57.71957584 301.04245908 56.51604365 300.36496936 55.3125 299.6875 C53.4324642 298.62282234 51.55333279 297.55656029 49.67424011 296.49021912 C48.38530575 295.75889934 47.09608782 295.02807912 45.80659485 294.29774475 C38.04823308 289.90140257 30.33324295 285.4304629 22.61645508 280.96166992 C21.61509521 280.38263916 20.61373535 279.8036084 19.58203125 279.20703125 C18.71811768 278.7066333 17.8542041 278.20623535 16.96411133 277.69067383 C12.99507397 275.42680893 8.99427147 273.21903971 5 271 Z M-9.3828125 274.3515625 C-10.29063477 274.86605957 -11.19845703 275.38055664 -12.13378906 275.91064453 C-13.12088867 276.47638184 -14.10798828 277.04211914 -15.125 277.625 C-16.14819336 278.20749512 -17.17138672 278.78999023 -18.22558594 279.39013672 C-27.58814058 284.73344167 -36.90053659 290.16253534 -46.203125 295.609375 C-51.79214816 298.88182116 -57.39357021 302.13248327 -63 305.375 C-63.8137207 305.84566895 -64.62744141 306.31633789 -65.46582031 306.80126953 C-67.31034998 307.86785361 -69.15514139 308.933985 -71 310 C-67.05959283 317.26337909 -63.06697439 324.49423356 -59 331.6875 C-58.44094971 332.67661377 -57.88189941 333.66572754 -57.3059082 334.68481445 C-52.7525052 342.7180333 -48.11075684 350.69742201 -43.44335938 358.66479492 C-38.90968841 366.4135568 -34.4439052 374.19959781 -30 382 C-23.69968504 393.05803834 -17.32116584 404.06785032 -10.890625 415.05078125 C-8.56773739 419.01942419 -6.27196469 423.00200388 -4 427 C-3.67 427 -3.34 427 -3 427 C-3 375.85 -3 324.7 -3 272 C-5.6863225 272 -7.04638237 273.02176826 -9.3828125 274.3515625 Z M-80 315 C-82.14268817 315.94838352 -82.14268817 315.94838352 -84.53125 317.4375 C-85.94567383 318.27438354 -85.94567383 318.27438354 -87.38867188 319.12817383 C-88.41541016 319.74587646 -89.44214844 320.3635791 -90.5 321 C-92.68707239 322.29629465 -94.87458795 323.59184181 -97.0625 324.88671875 C-97.62932495 325.22362228 -98.1961499 325.56052582 -98.78015137 325.90763855 C-104.98860868 329.59708975 -111.24184204 333.20810625 -117.5 336.8125 C-118.58522949 337.43842041 -119.67045898 338.06434082 -120.78857422 338.70922852 C-129.15973513 343.53148162 -137.56162463 348.29643427 -146 353 C-143.4916488 355.81784037 -140.70077062 357.45723723 -137.42578125 359.30078125 C-135.73074463 360.2609314 -135.73074463 360.2609314 -134.00146484 361.24047852 C-133.10050079 361.74649094 -133.10050079 361.74649094 -132.18133545 362.26272583 C-128.98901802 364.05593474 -125.80583354 365.86525434 -122.62109375 367.671875 C-121.97456848 368.03801407 -121.32804321 368.40415314 -120.66192627 368.78138733 C-114.70368197 372.15857254 -108.7843799 375.60055967 -102.875 379.0625 C-94.64010794 383.8806204 -86.39079398 388.67257097 -78.125 393.4375 C-77.04605469 394.05947266 -75.96710938 394.68144531 -74.85546875 395.32226562 C-71.57057008 397.21529126 -68.28534897 399.10775598 -65 401 C-60.6245717 403.5200909 -56.24962689 406.04101821 -51.875 408.5625 C-50.81490723 409.17287109 -49.75481445 409.78324219 -48.66259766 410.41210938 C-43.12815101 413.6026246 -37.60606095 416.81278357 -32.1015625 420.0546875 C-30.99312988 420.70622803 -29.88469727 421.35776855 -28.74267578 422.02905273 C-26.62162506 423.2773778 -24.50271524 424.52934949 -22.38623047 425.78540039 C-21.44408691 426.3396167 -20.50194336 426.89383301 -19.53125 427.46484375 C-18.70173828 427.955896 -17.87222656 428.44694824 -17.01757812 428.95288086 C-15.08299336 430.15355086 -15.08299336 430.15355086 -13 430 C-14.37448867 426.36367377 -16.00434858 423.02935879 -17.90625 419.640625 C-18.47980225 418.61654541 -19.05335449 417.59246582 -19.64428711 416.53735352 C-20.25667236 415.45252686 -20.86905762 414.3677002 -21.5 413.25 C-22.13365479 412.12327881 -22.76730957 410.99655762 -23.42016602 409.83569336 C-27.25000564 403.04482257 -31.13335601 396.29015254 -35.1105957 389.5847168 C-38.85304755 383.27275319 -42.52391536 376.92051655 -46.1875 370.5625 C-46.82115479 369.46325195 -47.45480957 368.36400391 -48.10766602 367.23144531 C-51.4015036 361.51533969 -54.69176611 355.79718616 -57.98046875 350.078125 C-66.088163 335.97387126 -66.088163 335.97387126 -74.3125 321.9375 C-74.66747559 321.33010986 -75.02245117 320.72271973 -75.38818359 320.09692383 C-77.1556442 317.00805633 -77.1556442 317.00805633 -80 315 Z M81 315 C76.04612076 321.53367587 72.19422262 328.83672082 68.25 336 C64.25824176 343.18892621 60.26001356 350.36636563 56.0625 357.4375 C51.92681967 364.40769944 47.8588748 371.41505843 43.8125 378.4375 C43.18102051 379.53312256 42.54954102 380.62874512 41.89892578 381.75756836 C39.25083817 386.35352491 36.60421826 390.95032574 33.95800781 395.54736328 C32.60421928 397.89910938 31.24996306 400.25058512 29.89526367 402.60180664 C28.62899006 404.79974434 27.3634762 406.99812 26.09887695 409.19702148 C22.83448156 414.86270703 19.51615364 420.48252205 16.06860352 426.0390625 C14.84049753 427.92049424 14.84049753 427.92049424 15 430 C18.54434427 428.65544302 21.80799193 427.08771656 25.11328125 425.234375 C26.10126709 424.68144775 27.08925293 424.12852051 28.10717773 423.55883789 C29.16493408 422.96192139 30.22269043 422.36500488 31.3125 421.75 C32.42117432 421.12665771 33.52984863 420.50331543 34.67211914 419.86108398 C44.13940877 414.52126695 53.53299965 409.05876975 62.91015625 403.5625 C69.21570419 399.8678669 75.54294436 396.21147319 81.875 392.5625 C82.95515381 391.93996338 84.03530762 391.31742676 85.14819336 390.67602539 C87.33796334 389.41423174 89.52782355 388.15259466 91.71777344 386.89111328 C94.98174327 385.01051894 98.24494189 383.12859454 101.5078125 381.24609375 C102.58119873 380.62686035 103.65458496 380.00762695 104.76049805 379.36962891 C106.90555126 378.13164432 109.05025038 376.89304598 111.19458008 375.65380859 C116.29461407 372.70767433 121.398547 369.76896015 126.51651001 366.85409546 C128.94768727 365.46889769 131.37663907 364.07982396 133.80541992 362.69042969 C135.53152548 361.70518005 137.26085377 360.72558339 138.99023438 359.74609375 C140.02599609 359.153125 141.06175781 358.56015625 142.12890625 357.94921875 C143.04744385 357.42674561 143.96598145 356.90427246 144.91235352 356.3659668 C147.12590097 355.167857 147.12590097 355.167857 148 353 C146.9790625 352.44054687 145.958125 351.88109375 144.90625 351.3046875 C130.65563412 343.46000553 116.63242708 335.23854641 102.60302734 327.00683594 C99.25718459 325.04451224 95.90987496 323.08470849 92.5625 321.125 C90.99798096 320.20509277 90.99798096 320.20509277 89.40185547 319.26660156 C88.44553223 318.70682617 87.48920898 318.14705078 86.50390625 317.5703125 C85.65642822 317.07289551 84.8089502 316.57547852 83.93579102 316.06298828 C82.2219842 314.91977854 82.2219842 314.91977854 81 315 Z M-151 362 C-151 387.74 -151 413.48 -151 440 C-106.45 440 -61.9 440 -16 440 C-19.35842893 437.31325686 -22.02488795 435.27988032 -25.67578125 433.2578125 C-26.57321045 432.75660889 -27.47063965 432.25540527 -28.39526367 431.73901367 C-29.35795166 431.20638916 -30.32063965 430.67376465 -31.3125 430.125 C-39.48454879 425.55660897 -47.61204423 420.92457843 -55.6875 416.1875 C-64.42592514 411.06732342 -73.20014863 406.01353125 -82 401 C-90.73411393 396.0228806 -99.44715432 391.01236467 -108.125 385.9375 C-120.27845859 378.83356808 -120.27845859 378.83356808 -132.44891357 371.75881958 C-134.14651292 370.77378287 -135.84208171 369.78524936 -137.53759766 368.79663086 C-138.57062012 368.19858643 -139.60364258 367.60054199 -140.66796875 366.984375 C-141.57828857 366.45553711 -142.4886084 365.92669922 -143.42651367 365.38183594 C-146.33873004 363.75621469 -146.33873004 363.75621469 -151 362 Z M144 366.0625 C142.4472923 366.98811697 140.89385964 367.91251853 139.33984375 368.8359375 C138.48632324 369.34350586 137.63280273 369.85107422 136.75341797 370.37402344 C131.71239729 373.35089857 126.63613255 376.26667373 121.5625 379.1875 C120.45712891 379.82437744 119.35175781 380.46125488 118.21289062 381.11743164 C115.94039943 382.4266623 113.66777476 383.73566132 111.39501953 385.04443359 C105.9283002 388.19332054 100.46425113 391.34683264 95 394.5 C92.83334689 395.7500235 90.66668021 397.00002347 88.5 398.25 C87.4275 398.86875 86.355 399.4875 85.25 400.125 C75.5 405.75 75.5 405.75 72.24658203 407.62695312 C70.09128689 408.8704051 67.93601327 410.11389436 65.78076172 411.35742188 C60.77662326 414.24462875 55.7722948 417.1315043 50.76715088 420.01696777 C49.01658759 421.02619104 47.26609589 422.03553836 45.515625 423.04492188 C43.33607835 424.3016766 41.15640168 425.55820586 38.9765625 426.81445312 C36.98646773 427.96209154 34.99718255 429.11113522 33.00878906 430.26171875 C30.86785805 431.49860846 28.72361764 432.72977753 26.57714844 433.95703125 C25.47661133 434.58996094 24.37607422 435.22289062 23.2421875 435.875 C22.23784668 436.44992187 21.23350586 437.02484375 20.19873047 437.6171875 C19.11035889 438.30167969 19.11035889 438.30167969 18 439 C18 439.33 18 439.66 18 440 C62.55 440 107.1 440 153 440 C153 414.26 153 388.52 153 362 C149.58296969 362 146.86208754 364.33368885 144 366.0625 Z M184.75 380.4375 C184.22921875 380.88996094 183.7084375 381.34242188 183.171875 381.80859375 C181.27841715 385.34935992 181.79368653 389.06597723 182 393 C183.18867676 393.09704224 183.18867676 393.09704224 184.40136719 393.19604492 C239.77279024 397.83421776 290.1407424 412.91480628 339.58129883 438.27587891 C340.50576057 438.74832535 340.50576057 438.74832535 341.44889832 439.23031616 C343.12247093 440.08732164 344.79302917 440.95020636 346.46337891 441.81347656 C348.83520006 443.14123222 348.83520006 443.14123222 351 443 C351 443.66 351 444.32 351 445 C350.13785889 445.26627197 349.27571777 445.53254395 348.38745117 445.80688477 C345.00511858 446.99819715 341.98044376 448.43618582 338.80078125 450.08984375 C337.59384905 450.71079121 336.3865579 451.33104135 335.17895508 451.95068359 C334.5495401 452.2747821 333.92012512 452.59888062 333.27163696 452.93280029 C285.27603985 477.54627208 235.49388498 490.43030291 182 495 C181.53773441 498.85221326 181.18340727 502.41516543 183.00195312 505.94458008 C185.10890272 508.40134485 186.84091597 509.80272652 190.07421875 510.35302734 C192.60016004 510.32096398 194.99924769 510.04615093 197.5 509.6875 C198.45068359 509.5743042 199.40136719 509.4611084 200.38085938 509.34448242 C203.59502107 508.94117188 206.79598388 508.47705485 210 508 C211.14726563 507.83532227 212.29453125 507.67064453 213.4765625 507.50097656 C272.58789962 498.85642644 327.17546398 478.25258016 381 453 C381.9163623 452.57074219 382.83272461 452.14148438 383.77685547 451.69921875 C388.52222985 449.47523819 393.26353653 447.24289357 398 445 C398 444.34 398 443.68 398 443 C368.10169461 428.24451513 207.15307959 359.56190311 184.75 380.4375 Z M-375.99462891 433.57080078 C-379.64849639 435.30839138 -383.31114558 437.02687051 -386.97436523 438.74462891 C-389.98549561 440.15764084 -392.99304024 441.5781376 -396 443 C-396 443.66 -396 444.32 -396 445 C-333.98572629 475.56154371 -270.05467528 500.22010375 -201.0625 508.875 C-199.49834351 509.07379761 -199.49834351 509.07379761 -197.90258789 509.27661133 C-196.45227173 509.44519653 -196.45227173 509.44519653 -194.97265625 509.6171875 C-193.70820679 509.76583252 -193.70820679 509.76583252 -192.41821289 509.91748047 C-188.20150926 510.06137202 -185.64009931 509.45518173 -182.1875 507 C-179.83081521 503.76797515 -179.74327537 503.09782845 -179.86328125 499.3125 C-179.8928894 498.10013672 -179.8928894 498.10013672 -179.9230957 496.86328125 C-179.94847412 496.24839844 -179.97385254 495.63351562 -180 495 C-180.78310547 494.93006836 -181.56621094 494.86013672 -182.37304688 494.78808594 C-237.46666072 489.78688515 -287.64012478 475.39173601 -336.9206543 450.07983398 C-337.58045288 449.7419133 -338.24025146 449.40399261 -338.92004395 449.05583191 C-340.71427405 448.13457659 -342.50508101 447.20666311 -344.2956543 446.27832031 C-346.80281963 444.85754902 -346.80281963 444.85754902 -349 445 C-349 444.34 -349 443.68 -349 443 C-348.13785889 442.73372803 -347.27571777 442.46745605 -346.38745117 442.19311523 C-343.00511858 441.00180285 -339.98044376 439.56381418 -336.80078125 437.91015625 C-335.59384905 437.28920879 -334.3865579 436.66895865 -333.17895508 436.04931641 C-332.5495401 435.7252179 -331.92012512 435.40111938 -331.27163696 435.06719971 C-283.27603985 410.45372792 -233.49388498 397.56969709 -180 393 C-179.53605184 387.20766857 -179.53605184 387.20766857 -181.171875 381.80859375 C-181.95304687 381.12990234 -181.95304687 381.12990234 -182.75 380.4375 C-183.26046875 379.96183594 -183.7709375 379.48617188 -184.296875 378.99609375 C-212.07112614 362.75197898 -343.57828958 418.15089319 -375.99462891 433.57080078 Z M182 412 C182 433.12 182 454.24 182 476 C193.59779905 475.38958952 204.43297155 474.79583314 215.75 472.8125 C217.67440918 472.48040527 217.67440918 472.48040527 219.63769531 472.14160156 C248.72760815 466.95188584 276.16324743 457.24585936 303 445 C303 444.34 303 443.68 303 443 C273.58371136 429.22595742 242.67043445 419.29362217 210.5625 414.1875 C209.86729248 414.07535156 209.17208496 413.96320313 208.45581055 413.84765625 C199.66051919 412.59505741 190.91948293 412.46944647 182 412 Z M-301 443 C-301 443.66 -301 444.32 -301 445 C-263.62691838 462.49977449 -221.6227207 476 -180 476 C-180 454.88 -180 433.76 -180 412 C-221.11477851 412 -264.37186097 424.75746982 -301 443 Z M-151 448 C-151 473.74 -151 499.48 -151 526 C-147.11538563 524.44615425 -143.82814443 522.86235312 -140.23046875 520.796875 C-139.10705078 520.15363281 -137.98363281 519.51039063 -136.82617188 518.84765625 C-135.61321505 518.14855234 -134.40032616 517.44933056 -133.1875 516.75 C-131.92393897 516.02454649 -130.66026552 515.29928874 -129.39648438 514.57421875 C-120.60068817 509.52219693 -111.83620262 504.4170285 -103.08276367 499.29199219 C-95.41756602 494.80992366 -87.71472895 490.39596222 -80 486 C-70.29786269 480.47102963 -60.62853264 474.88925395 -50.99023438 469.24951172 C-43.17660005 464.67929756 -35.34246087 460.1454963 -27.5 455.625 C-26.91812927 455.28959198 -26.33625854 454.95418396 -25.73675537 454.60861206 C-22.49163491 452.73826743 -19.24603296 450.86876046 -16 449 C-16 448.67 -16 448.34 -16 448 C-60.55 448 -105.1 448 -151 448 Z M18 448 C21.55827723 450.84662178 24.45882581 452.95715538 28.359375 455.1015625 C29.89549438 455.9522229 29.89549438 455.9522229 31.46264648 456.82006836 C32.54747314 457.4156958 33.6322998 458.01132324 34.75 458.625 C42.02314293 462.65708274 49.28750712 466.69013149 56.4375 470.9375 C63.40755586 475.07341637 70.41501381 479.1412128 77.4375 483.1875 C78.54472412 483.82550537 79.65194824 484.46351074 80.79272461 485.12084961 C83.06337068 486.42889477 85.33412358 487.73675448 87.60498047 489.04443359 C94.14166755 492.80963304 100.6749326 496.58076735 107.20825195 500.35180664 C112.24887015 503.26081062 117.29044864 506.16810148 122.33599854 509.06854248 C124.11749578 510.09275665 125.89864322 511.11757651 127.6796875 512.14257812 C129.91076625 513.42633375 132.14249573 514.70895939 134.375 515.99023438 C138.84213648 518.56196371 143.27615395 521.149475 147.6171875 523.9296875 C150.62330397 526.17400255 150.62330397 526.17400255 153 526 C153 500.26 153 474.52 153 448 C108.45 448 63.9 448 18 448 Z M-19.96875 460.75390625 C-21.00128906 461.35332031 -22.03382813 461.95273437 -23.09765625 462.5703125 C-24.78181641 463.55644531 -24.78181641 463.55644531 -26.5 464.5625 C-27.67551594 465.24654988 -28.85130147 465.93013667 -30.02734375 466.61328125 C-32.47370926 468.03482132 -34.91889463 469.45836082 -37.36328125 470.88330078 C-42.89805019 474.10757169 -48.44984105 477.30232174 -54 480.5 C-56.16413292 481.74857586 -58.32819515 482.99727427 -60.4921875 484.24609375 C-64.85065388 486.76069436 -69.21012191 489.27354661 -73.5703125 491.78515625 C-84.02206186 497.80747321 -94.46301039 503.84666789 -104.875 509.9375 C-118.19197717 517.7265269 -131.59330606 525.36679535 -145 533 C-143.78416075 536.64751775 -142.99712003 536.85255743 -139.71484375 538.64453125 C-138.8036377 539.14944092 -137.89243164 539.65435059 -136.95361328 540.17456055 C-135.9582959 540.71508057 -134.96297852 541.25560059 -133.9375 541.8125 C-131.82856373 542.98021295 -129.72051846 544.14953624 -127.61328125 545.3203125 C-125.97480225 546.22765137 -125.97480225 546.22765137 -124.30322266 547.15332031 C-119.03756723 550.0971058 -113.83005473 553.13819671 -108.625 556.1875 C-107.13601196 557.05846313 -107.13601196 557.05846313 -105.61694336 557.94702148 C-102.74343095 559.62931511 -99.87137433 561.31406005 -97 563 C-96.10764648 563.52384277 -95.21529297 564.04768555 -94.29589844 564.58740234 C-89.52810447 567.38737806 -84.76278364 570.19151073 -80 573 C-76.8024461 570.0566084 -74.72301667 567.11220862 -72.6015625 563.328125 C-71.96476562 562.20148438 -71.32796875 561.07484375 -70.671875 559.9140625 C-70.33865234 559.31754883 -70.00542969 558.72103516 -69.66210938 558.10644531 C-68.2457943 555.57121465 -66.81528802 553.04409327 -65.38543701 550.51647949 C-64.65235209 549.22040919 -63.91997484 547.92393836 -63.18829346 546.6270752 C-59.85103552 540.71672839 -56.43540777 534.85379977 -53 529 C-47.94277295 520.3655689 -42.95388902 511.69394663 -38 503 C-19.81123074 471.08163295 -19.81123074 471.08163295 -14.32543945 462.32788086 C-12.83506877 460.15679183 -12.83506877 460.15679183 -13 458 C-15.87659558 458 -17.48758548 459.30604957 -19.96875 460.75390625 Z M15 458 C16.37448867 461.63632623 18.00434858 464.97064121 19.90625 468.359375 C20.47980225 469.38345459 21.05335449 470.40753418 21.64428711 471.46264648 C22.25667236 472.54747314 22.86905762 473.6322998 23.5 474.75 C24.13365479 475.87672119 24.76730957 477.00344238 25.42016602 478.16430664 C29.25000564 484.95517743 33.13335601 491.70984746 37.1105957 498.4152832 C40.85304755 504.72724681 44.52391536 511.07948345 48.1875 517.4375 C48.82115479 518.53674805 49.45480957 519.63599609 50.10766602 520.76855469 C53.4015036 526.48466031 56.69176611 532.20281384 59.98046875 537.921875 C63.0964637 543.3389243 66.22273873 548.74991733 69.35644531 554.15673828 C70.85817409 556.75464876 72.3479756 559.35903574 73.8359375 561.96484375 C74.63987281 563.35199871 75.44449224 564.73875756 76.25 566.125 C76.59659668 566.74076904 76.94319336 567.35653809 77.30029297 567.9909668 C78.32590817 569.79836894 78.32590817 569.79836894 80 572 C83.52599913 572 84.87153025 571.15383374 87.91796875 569.4296875 C88.91320557 568.86983154 89.90844238 568.30997559 90.93383789 567.7331543 C92.00754639 567.11996338 93.08125488 566.50677246 94.1875 565.875 C95.29794678 565.24698486 96.40839355 564.61896973 97.55249023 563.97192383 C106.26207005 559.03097729 114.91736338 553.99749609 123.55541992 548.93261719 C131.64879924 544.18861947 139.80059594 539.55790402 148 535 C145.60030318 532.34434213 143.03555811 530.72001447 139.93359375 528.953125 C138.90427734 528.36337891 137.87496094 527.77363281 136.81445312 527.16601562 C135.70005859 526.53373047 134.58566406 525.90144531 133.4375 525.25 C132.26598539 524.58058653 131.09476624 523.91065574 129.92382812 523.24023438 C127.49056166 521.84760003 125.05603768 520.45720253 122.62060547 519.06835938 C117.06842407 515.89970234 111.53519338 512.69820559 106 509.5 C103.83342291 508.24984475 101.66675593 506.99984527 99.5 505.75 C93 502 93 502 86.5 498.25 C85.42733887 497.63116943 84.35467773 497.01233887 83.24951172 496.37475586 C81.08442929 495.12564482 78.91939018 493.87645871 76.75439453 492.62719727 C71.31384294 489.48797691 65.87252784 486.35009437 60.4296875 483.21484375 C58.24478807 481.95573541 56.05989221 480.69662086 53.875 479.4375 C52.81474609 478.82704834 51.75449219 478.21659668 50.66210938 477.58764648 C45.12784828 474.39717366 39.60590431 471.18712418 34.1015625 467.9453125 C32.99312988 467.29377197 31.88469727 466.64223145 30.74267578 465.97094727 C28.62162506 464.7226222 26.50271524 463.47065051 24.38623047 462.21459961 C23.44408691 461.6603833 22.50194336 461.10616699 21.53125 460.53515625 C20.70173828 460.044104 19.87222656 459.55305176 19.01757812 459.04711914 C17.08299336 457.84644914 17.08299336 457.84644914 15 458 Z M-4 461 C-4.40613525 461.7120459 -4.81227051 462.4240918 -5.23071289 463.15771484 C-14.49029763 479.38761908 -23.78775023 495.59480146 -33.13671875 511.7734375 C-35.0203505 515.03524007 -36.90122321 518.29861844 -38.78125 521.5625 C-46.59542818 535.12627778 -54.45222248 548.66435497 -62.3515625 562.17871094 C-65.23721443 567.11748369 -68.11845949 572.05882765 -71 577 C-67.59166354 579.8455204 -64.16533016 582.18211602 -60.30078125 584.36328125 C-59.18598389 584.99588867 -58.07118652 585.62849609 -56.92260742 586.28027344 C-55.71924484 586.95769393 -54.51587554 587.63510251 -53.3125 588.3125 C-51.43456808 589.37612171 -49.55755023 590.44134469 -47.68055725 591.50662231 C-46.39254092 592.23748871 -45.10423846 592.96785107 -43.81565857 593.69772339 C-37.08496369 597.51166604 -30.3848574 601.37790224 -23.6875 605.25 C-19.12294825 607.88768671 -19.12294825 607.88768671 -14.55615234 610.52148438 C-12.96369886 611.44258259 -11.37480261 612.36989348 -9.79150391 613.30664062 C-6.61179638 615.33624755 -6.61179638 615.33624755 -3 616 C-3 564.85 -3 513.7 -3 461 C-3.33 461 -3.66 461 -4 461 Z M5 461 C5 512.48 5 563.96 5 617 C9.62 614.36 14.24 611.72 19 609 C21.7885166 607.45190935 24.57900476 605.90928587 27.375 604.375 C37.70369123 598.67196463 47.87393636 592.69905669 58.04980469 586.72900391 C63.02845198 583.81119688 68.01435175 580.90582341 73 578 C64.52876953 562.4001637 55.94559439 546.85180052 46.88842773 531.58325195 C43.14652142 525.27164798 39.47569688 518.92006411 35.8125 512.5625 C35.18029541 511.46542725 34.54809082 510.36835449 33.89672852 509.23803711 C32.59452251 506.97765661 31.29252337 504.71715692 29.99072266 502.45654297 C27.31007999 497.80207413 24.62757119 493.14868344 21.9440918 488.49584961 C20.69132046 486.32367658 19.4388554 484.15132686 18.18676758 481.97875977 C17.03873351 479.9879261 15.88928436 477.99790765 14.73828125 476.00878906 C13.50139154 473.86785805 12.27022247 471.72361764 11.04296875 469.57714844 C10.41003906 468.47661133 9.77710938 467.37607422 9.125 466.2421875 C8.55007813 465.23784668 7.97515625 464.23350586 7.3828125 463.19873047 C6.92648437 462.47314941 6.47015625 461.74756836 6 461 C5.67 461 5.34 461 5 461 Z M-181 533 C-200.52031616 555.48619365 -216.76404616 580.91034524 -231 607 C-231.54769043 608.00353516 -232.09538086 609.00707031 -232.65966797 610.04101562 C-249.83309611 641.7714352 -263.01317271 675.05915517 -275.125 709 C-275.37164398 709.68973907 -275.61828796 710.37947815 -275.87240601 711.09011841 C-276.56723244 713.0379048 -277.25722827 714.98732304 -277.9453125 716.9375 C-278.34250488 718.06027344 -278.73969727 719.18304687 -279.14892578 720.33984375 C-280.10157288 722.8519835 -280.10157288 722.8519835 -280 725 C-270.04056548 722.59490982 -260.52692778 719.05867815 -250.9375 715.5 C-250.09852173 715.18975891 -249.25954346 714.87951782 -248.3951416 714.55987549 C-233.73854928 709.13074732 -219.2772494 703.36991961 -205 697 C-203.9289502 696.52353027 -202.85790039 696.04706055 -201.75439453 695.55615234 C-174.69432442 683.4519058 -148.38713538 669.93638028 -124 653 C-123.36529785 652.56220215 -122.7305957 652.1244043 -122.07666016 651.67333984 C-113.18528214 645.53024374 -104.40665944 639.27465235 -96.05078125 632.4140625 C-93 630 -93 630 -90.35546875 628.4609375 C-87.82470129 626.87422165 -86.61815904 625.50432612 -85 623 C-84.49833695 620.63845174 -84.49833695 620.63845174 -84.5234375 618.125 C-84.50522949 617.2187085 -84.48702148 616.31241699 -84.46826172 615.37866211 C-84.51488037 611.24215324 -84.69636415 607.12536016 -85 603 C-88.86509767 606.28211325 -92.6704524 609.59895456 -96.375 613.0625 C-103.53416393 619.52533188 -111.27188882 625.24151528 -119 631 C-119.59828613 631.45020508 -120.19657227 631.90041016 -120.81298828 632.36425781 C-158.63190412 660.73663533 -202.69758816 676.89912469 -247 692 C-229.78599245 640.95750587 -209.74935453 593.50345332 -176 551 C-177.32 550.34 -178.64 549.68 -180 549 C-180 543.72 -180 538.44 -180 533 C-180.33 533 -180.66 533 -181 533 Z M182 533 C182 538.28 182 543.56 182 549 C180.68 549.66 179.36 550.32 178 551 C178.94746094 552.15048828 178.94746094 552.15048828 179.9140625 553.32421875 C213.17358457 594.33144632 232.40017323 642.44798861 249 692 C192.5478429 672.96159141 140.6950084 650.23732885 95.55175781 610.36230469 C92.72496847 607.88063626 89.86067096 605.44245042 87 603 C85.57306723 614.82832835 85.57306723 614.82832835 88.6640625 625.91015625 C91.29641512 628.26518744 94.01998752 630.10231651 97 632 C98.2307182 632.92253398 99.45159523 633.85829469 100.6640625 634.8046875 C121.14881406 650.7592315 143.13424676 664.73518053 166 677 C166.84449707 677.45842285 167.68899414 677.9168457 168.55908203 678.38916016 C222.82769683 709.46319997 222.82769683 709.46319997 282 725 C279.75701109 716.00214107 276.74961419 707.32240008 273.5625 698.625 C273.30089081 697.9085733 273.03928162 697.19214661 272.76974487 696.45401001 C252.075074 639.90918431 225.42404438 576.42404438 182 533 Z M-161.359375 562.29077148 C-161.81828125 562.89477783 -162.2771875 563.49878418 -162.75 564.12109375 C-163.27045898 564.80051025 -163.79091797 565.47992676 -164.32714844 566.17993164 C-165.15520996 567.29742798 -165.15520996 567.29742798 -166 568.4375 C-166.57524414 569.20376709 -167.15048828 569.97003418 -167.74316406 570.75952148 C-177.21134226 583.52069554 -185.55308191 596.96966337 -193 611 C-193.433125 611.8156543 -193.86625 612.63130859 -194.3125 613.47167969 C-206.86649562 634.81770302 -206.86649562 634.81770302 -213 658 C-206.24869189 656.10938414 -199.80511603 653.85298696 -193.375 651.0625 C-192.48184082 650.67553955 -191.58868164 650.2885791 -190.66845703 649.88989258 C-162.79188091 637.63817351 -137.35744264 622.55506826 -114 603 C-111.94166249 601.30735697 -109.87691926 599.62274021 -107.8125 597.9375 C-106.89082031 597.18339844 -105.96914063 596.42929687 -105.01953125 595.65234375 C-104.01986328 594.83443359 -104.01986328 594.83443359 -103 594 C-105.96037169 590.77935165 -108.9322584 588.69944489 -112.7421875 586.56640625 C-113.88115479 585.92316406 -115.02012207 585.27992188 -116.19360352 584.6171875 C-117.4206755 583.93218386 -118.64780894 583.24729029 -119.875 582.5625 C-122.40415905 581.13992782 -124.93076552 579.71285891 -127.45703125 578.28515625 C-128.40832161 577.74859909 -128.40832161 577.74859909 -129.37882996 577.20120239 C-136.44319616 573.20551785 -143.40373934 569.03519515 -150.33349609 564.81079102 C-151.17348145 564.30604248 -152.0134668 563.80129395 -152.87890625 563.28125 C-153.6066626 562.83845703 -154.33441895 562.39566406 -155.08422852 561.93945312 C-157.58157234 560.71480943 -159.23308137 560.27178542 -161.359375 562.29077148 Z M154.37109375 563.53515625 C153.43040039 564.09025879 152.48970703 564.64536133 151.52050781 565.21728516 C150.50311523 565.82620605 149.48572266 566.43512695 148.4375 567.0625 C146.27531237 568.34341527 144.11252984 569.62332678 141.94921875 570.90234375 C140.81790527 571.57249512 139.6865918 572.24264648 138.52099609 572.93310547 C134.95711378 575.03372787 131.36640443 577.08543064 127.76953125 579.12890625 C126.5847009 579.80392718 125.39988628 580.47897571 124.21508789 581.15405273 C121.93948005 582.44842194 119.66139159 583.73844161 117.38061523 585.02368164 C116.34235596 585.61656982 115.30409668 586.20945801 114.234375 586.8203125 C112.86104004 587.59785889 112.86104004 587.59785889 111.45996094 588.39111328 C108.9559558 590.0288062 107.03116856 591.81290694 105 594 C105.65484375 594.53367187 106.3096875 595.06734375 106.984375 595.6171875 C107.89703125 596.36226562 108.8096875 597.10734375 109.75 597.875 C111.28333984 599.12216797 111.28333984 599.12216797 112.84765625 600.39453125 C114.78800559 601.98412287 116.67799625 603.59932798 118.55859375 605.26171875 C133.36351953 618.21877861 150.57382831 628.92044789 168 638 C169.20825439 638.63881104 169.20825439 638.63881104 170.44091797 639.29052734 C191.79990987 651.85896309 191.79990987 651.85896309 215 658 C213.10938414 651.24869189 210.85298696 644.80511603 208.0625 638.375 C207.48205933 637.03526123 207.48205933 637.03526123 206.88989258 635.66845703 C196.57790029 612.20537919 184.25012325 590.5797511 169 570 C167.97519531 568.58460938 167.97519531 568.58460938 166.9296875 567.140625 C166.31351563 566.31046875 165.69734375 565.4803125 165.0625 564.625 C164.53785156 563.91601562 164.01320313 563.20703125 163.47265625 562.4765625 C162.74369141 561.74566406 162.74369141 561.74566406 162 561 C158.50853791 561 157.33762249 561.76788104 154.37109375 563.53515625 Z M-54 621 C-55.65809558 622.38124477 -57.30110507 623.78061348 -58.9375 625.1875 C-59.85402344 625.96480469 -60.77054687 626.74210938 -61.71484375 627.54296875 C-64.29098736 630.31287359 -64.57006106 631.32757769 -65 635 C-64.88754118 637.14988686 -64.68973004 639.29605902 -64.43359375 641.43359375 C-64.28116211 642.7067041 -64.12873047 643.97981445 -63.97167969 645.29150391 C-63.79497226 646.67367619 -63.61687488 648.05567136 -63.4375 649.4375 C-63.30220886 650.49768341 -63.30220886 650.49768341 -63.16418457 651.57928467 C-55.48524742 711.17378758 -35.10790173 767.01184534 -9.42919922 820.99462891 C-7.69160862 824.64849639 -5.97312949 828.31114558 -4.25537109 831.97436523 C-2.84235916 834.98549561 -1.4218624 837.99304024 0 841 C0.66 841 1.32 841 2 841 C32.61989115 778.86732998 57.20265607 715.19375879 65.875 646.0625 C66.00753174 645.019729 66.14006348 643.97695801 66.27661133 642.90258789 C66.38900146 641.93571045 66.5013916 640.96883301 66.6171875 639.97265625 C66.71628418 639.12968994 66.81538086 638.28672363 66.91748047 637.41821289 C67.04129131 633.78996928 66.73869253 630.96747395 64.51171875 628.05078125 C63.90972656 627.47714844 63.30773437 626.90351562 62.6875 626.3125 C62.09324219 625.73113281 61.49898437 625.14976562 60.88671875 624.55078125 C59.00751059 623.0061733 57.21301684 621.99170512 55 621 C54.01 621.66 53.02 622.32 52 623 C51.38128172 625.92943064 51.38128172 625.92943064 51.2265625 629.4296875 C51.12612395 630.78208081 51.02544601 632.13445636 50.92456055 633.48681641 C50.85221695 634.5591452 50.85221695 634.5591452 50.77841187 635.65313721 C47.19742081 687.51660145 30.71325008 735.90705602 7.08007812 781.91992188 C6.74212219 782.5798262 6.40416626 783.23973053 6.05596924 783.91963196 C5.13470392 785.7140177 4.20672894 787.50495404 3.27832031 789.2956543 C1.85754902 791.80281963 1.85754902 791.80281963 2 794 C1.34 794 0.68 794 0 794 C-0.26627197 793.13785889 -0.53254395 792.27571777 -0.80688477 791.38745117 C-1.99819715 788.00511858 -3.43618582 784.98044376 -5.08984375 781.80078125 C-5.71079121 780.59384905 -6.33104135 779.3865579 -6.95068359 778.17895508 C-7.2747821 777.5495401 -7.59888062 776.92012512 -7.93280029 776.27163696 C-23.76618432 745.39697095 -35.88373181 713.00119322 -43 679 C-43.19432617 678.07896484 -43.38865234 677.15792969 -43.58886719 676.20898438 C-45.55894132 666.61647682 -46.96981604 657.05083729 -47.76953125 647.29296875 C-47.83206589 646.54097198 -47.89460052 645.78897522 -47.95903015 645.01419067 C-48.26643561 641.25764929 -48.54622687 637.50170787 -48.78588867 633.74023438 C-48.88814693 632.36195225 -48.99075098 630.98369572 -49.09375 629.60546875 C-49.17302734 628.37981201 -49.25230469 627.15415527 -49.33398438 625.89135742 C-49.68574771 622.87475753 -49.68574771 622.87475753 -52.05664062 621.5871582 C-52.69794922 621.393396 -53.33925781 621.19963379 -54 621 Z M-30 635 C-28.87640067 673.707997 -15.92873927 711.0922306 0 746 C0.66 746 1.32 746 2 746 C17.69526764 712.4806813 32.77204297 672.48697529 32 635 C30.5603187 635.76675161 29.12352426 636.53892092 27.6875 637.3125 C26.69878906 637.84488281 25.71007812 638.37726562 24.69140625 638.92578125 C21.81499476 640.51100718 19.01393676 642.20015562 16.21484375 643.91796875 C15.37671143 644.42481201 14.5385791 644.93165527 13.67504883 645.45385742 C11.98748606 646.47705848 10.30867308 647.51484482 8.6394043 648.56762695 C7.853479 649.04031006 7.06755371 649.51299316 6.2578125 650 C5.20811279 650.6496875 5.20811279 650.6496875 4.13720703 651.3125 C1.0866697 652.29380148 -0.1811788 651.44542799 -3 650 C-5.06459369 648.87301591 -7.11016319 647.71081491 -9.140625 646.5234375 C-9.70827576 646.19332672 -10.27592651 645.86321594 -10.86077881 645.52310181 C-12.65906297 644.47691579 -14.45472461 643.42633948 -16.25 642.375 C-18.05980486 641.31696024 -19.87016646 640.25992054 -21.68206787 639.20547485 C-23.31582524 638.25447784 -24.94751453 637.29993063 -26.57910156 636.34521484 C-28.68409594 634.91904704 -28.68409594 634.91904704 -30 635 Z " fill="#FFFFFF" transform="translate(511,68)"/>
</svg>
